/* XPM */
static char *_d44eb917e6646fb994e8baf85edc70a3hdHRhkFqQs7DMvv[] = {
/* columns rows colors chars-per-pixel */
"64 64 255 2 ",
"   c #050304",
".  c #0B0404",
"X  c #060807",
"o  c #0D0806",
"O  c #0D0B0A",
"+  c #130404",
"@  c #1B0404",
"#  c #130A06",
"$  c #1C0A05",
"%  c #190708",
"&  c #140C0A",
"*  c #1C0D09",
"=  c #1A120C",
"-  c #1A1915",
";  c #270807",
":  c #230C09",
">  c #380809",
",  c #23130B",
"<  c #271308",
"1  c #2B150B",
"2  c #2B1A0D",
"3  c #371609",
"4  c #341B0C",
"5  c #251915",
"6  c #241D14",
"7  c #2C1C12",
"8  c #321D14",
"9  c #391915",
"0  c #1B221B",
"q  c #2B2116",
"w  c #24241C",
"e  c #2B241A",
"r  c #28261B",
"t  c #342314",
"y  c #3B2413",
"u  c #3C2812",
"i  c #32251A",
"p  c #392819",
"a  c #3B2C1D",
"s  c #1D3027",
"d  c #292C23",
"f  c #332D23",
"g  c #3C2D25",
"h  c #29342A",
"j  c #383428",
"k  c #293A33",
"l  c #373D33",
"z  c #470A0B",
"x  c #590A0C",
"c  c #461A09",
"v  c #57190B",
"b  c #4C0C12",
"n  c #461814",
"m  c #581616",
"M  c #650A0C",
"N  c #770B0D",
"B  c #69100F",
"V  c #76130B",
"C  c #760C13",
"Z  c #681616",
"A  c #791514",
"S  c #43220B",
"D  c #4B250A",
"F  c #56280A",
"G  c #5A330C",
"H  c #462716",
"J  c #4A2C14",
"K  c #562916",
"L  c #48331C",
"P  c #583619",
"I  c #66290A",
"U  c #752808",
"Y  c #693709",
"T  c #77360A",
"R  c #672918",
"E  c #772518",
"W  c #673918",
"Q  c #763A16",
"!  c #6D1D21",
"~  c #4D2E28",
"^  c #433423",
"/  c #483927",
"(  c #573926",
")  c #672826",
"_  c #782826",
"`  c #673926",
"'  c #75372F",
"]  c #2D4434",
"[  c #374739",
"{  c #76460D",
"}  c #67421B",
"|  c #774419",
" . c #49412B",
".. c #56452A",
"X. c #494638",
"o. c #574736",
"O. c #4F523A",
"+. c #595239",
"@. c #684928",
"#. c #764926",
"$. c #755429",
"%. c #694836",
"&. c #784736",
"*. c #6A5438",
"=. c #765738",
"-. c #263944",
";. c #385349",
":. c #346855",
">. c #4F5146",
",. c #475749",
"<. c #585747",
"1. c #6C4E46",
"2. c #655947",
"3. c #755A48",
"4. c #476857",
"5. c #4F6B56",
"6. c #586655",
"7. c #756346",
"8. c #696856",
"9. c #726F52",
"0. c #776A58",
"q. c #527764",
"w. c #6B786A",
"e. c #797465",
"r. c #8E140B",
"t. c #890A16",
"y. c #970C16",
"u. c #891618",
"i. c #971816",
"p. c #A80C13",
"a. c #B70817",
"s. c #A71818",
"d. c #B81619",
"f. c #852518",
"g. c #95251C",
"h. c #8B3511",
"j. c #AB2D0F",
"k. c #B62716",
"l. c #911621",
"z. c #AE1422",
"x. c #842823",
"c. c #962826",
"v. c #88382B",
"b. c #97352C",
"n. c #8B3732",
"m. c #973836",
"M. c #A52728",
"N. c #AE2E2C",
"B. c #A83A37",
"V. c #B83735",
"C. c #C70916",
"Z. c #DA0718",
"A. c #CC1418",
"S. c #E7061C",
"D. c #EC1B1B",
"F. c #CA2E16",
"G. c #EA2F17",
"H. c #D11324",
"J. c #EC0825",
"K. c #F51726",
"L. c #F4102D",
"P. c #C7292A",
"I. c #D13233",
"U. c #F0302A",
"Y. c #EA2934",
"T. c #F82739",
"R. c #F8383B",
"E. c #8A460A",
"W. c #864619",
"Q. c #994819",
"!. c #935115",
"~. c #AC4D0F",
"^. c #A95918",
"/. c #B5661B",
"(. c #864A26",
"). c #875327",
"_. c #91562D",
"`. c #88473A",
"'. c #994639",
"]. c #9A5738",
"[. c #A7463A",
"{. c #B15230",
"}. c #8E6638",
"|. c #B16C30",
" X c #CC530A",
".X c #EF4B14",
"XX c #D6730C",
"oX c #CE4A34",
"OX c #F34E31",
"+X c #C87826",
"@X c #CB7539",
"#X c #F66C37",
"$X c #A33B41",
"%X c #C93E47",
"&X c #ED3645",
"*X c #FA3945",
"=X c #865748",
"-X c #955247",
";X c #AE524A",
":X c #866847",
">X c #916E4F",
",X c #98684A",
"<X c #987648",
"1X c #846953",
"2X c #887452",
"3X c #977958",
"4X c #AE6F4F",
"5X c #A66655",
"6X c #847868",
"7X c #927767",
"8X c #B07467",
"9X c #D1524E",
"0X c #EE4F4C",
"qX c #FA5A55",
"wX c #CE6B55",
"eX c #F46C52",
"rX c #CA5D60",
"tX c #D37268",
"yX c #EC7067",
"uX c #578974",
"iX c #73876D",
"pX c #BD8038",
"aX c #E7800B",
"sX c #C88C38",
"dX c #AA854A",
"fX c #B58C50",
"gX c #9E8B60",
"hX c #91866E",
"jX c #AE8D6F",
"kX c #B79A78",
"lX c #CF914D",
"zX c #D6A84D",
"xX c #EDA552",
"cX c #CF9070",
"vX c #ED8D73",
"bX c #D8AB6E",
"nX c #E5AF6F",
"mX c #EEC776",
"MX c #FB6094",
"NX c #58C09D",
"BX c #AC9485",
"VX c #B8A997",
"CX c #A8B6A4",
"ZX c #CD9386",
"AX c #EA9290",
"SX c #D1AC8C",
"DX c #F0AB8B",
"FX c #99DDB3",
"GX c #F4CF8C",
"HX c #DBD1B7",
"JX c #EADCB7",
"KX c #F5E7B8",
"LX c #E5DBC7",
"PX c #F2ECD2",
"IX c #F6F5E5",
/* pixels */
"> > + > .             . . .         . . . o # * & o o . . o H %.` ) o . . . p @.%.( p # .       # & + # , 7 ( p ,     . @ + . + ",
"> ; ; >                         . . . . . o o # # o . o # ,XDXDXDXvX;X# . . .   o , ( =.=.( / p p p K P H t #         . @ @ % % ",
"> @ z >                       . o o o o o o o # # # # # ` vXDXcX3X,XwXK # o o . . . . # , 2 8 7 7 # # .                 @ @ @ + ",
"> ; > : * , , 1 4 u S D G G W | $.$.}.}.<X<XdXdXfXkXkXjX[.{.yX5X( ~ m b.cXkXkXkXjXgX<X}.}.}.$.$.@.@.} P G J S 4 4 1 * # % % & + ",
"; > : < c D F Y { { } W.!.!.^.sXsXzXzXzXmXmXGXGXGXDXrXvXv._ b.wX;Xn > n ;XvXGXKXGXGXmXnXnXzXzXlXsX|.pX|.).{ W.{ { G D 4 : $ % + ",
"; z % 3 3 c c F F F K Q W.!.^.|.pXlXlXlXbXbXbXnXvXrXyXcX,X3 R b.v.m 3 4XcXwXtXvXSXbXbXbXlXlXlXfXpX|.|._.).} R G J D 4 3 < : : @ ",
"> z $ 4 # 2 2 u i 0 / j f j / X.o.>.<.<.<.2.4XrX%XB.-XtXcXBX1XW =XVX&.;X4XtXtX9XyX=X2.<.>.>.O.X./ j j d w ..i r t t 1 = , 3 < ; ",
"x 3 : H 4 J J P @... .<.*.2X0.e.hXgXkXkXcXyXyXM.;X-X5X) SXIXIXIXIXIXKX&.-X4X4X9XoXyXAXkXkXhXjXe.9.9.9.7.>.=./ } P L H y t 4 3 z ",
"x 1 < u D S D P @.@.P 2.,X=.7.3XjXjXjXcXqX9Xx.V.' &.&.,XJXLXLXHXPXPXKX4X&.=X&._ rX;X9XvXjXgX3X3X3X<X*.=.=.=.( @.} J H t J y 3 B ",
"z 1 < J J P J @.@.@.( 8.=.:X1X>X3XtX9X0XV._ tXx.; ; ` 4XKXFXLXHXLXFXPXSX%.; @ n m.;XrXc.9XyXjX<X:X:X:X}.+.3...@.P H y u J S 4 Z ",
"> 4 < L J L J P #.@...e.8.1X5X9XI.I.%Xc._ rX;X4X5X`._ `.jXNXIXKXIXNXCXjX`.=X1.-XtX-Xm rX;Xl.9XqXrX,X:X7.6.=./ #.P P S y y H 4 R ",
": 3 < P y P P W P K ' '.V.N.E _ V.c.x $XrX_ ;X` 5X` ) ` , s HXHXHX[ & %.-X9 4X].-X-XtXn ! rXrXb.M.V.9X;X;X=X( W W W J H i J 4 R ",
"$ 3 < P L L ( / _ n n n ) ' _ b > _ 9XM.Z 9X9 H n n i LX6XL # 1.9 4 6XPX8.% m ' , n.Z rX;Xn > ) m.m.n.' m ) ) _ ..*./ / j J 1 F ",
": F D P 4 4 y E N.b.n n n ) _ m.9Xn.z x 9XvX9 . @ 1 `.BXAXVXm.MXI.hXSX8X6XK @ + # vXwXm Z ;X;X' ~ ~ ) _ m 9 n.c.R t q 2 7 J S D ",
"< F F %./ j ^ M.M.b.B.. + ; > ; + + _ m.) H % o + : R + 9 o.' z m e.9 @ ..1 . o . 9 ' ;X5X&.n n m b > .   ' B.x.i.j j / / W S 3 ",
"3 T I =.@./ m b.i.[.9X&     . % @ @ + . . . . . % K : $ . e.>.. j CXo % # 9 @ . . . . o + , n 9 ; +       [.I._ P.K  ...~ W D c ",
"3 T Y =.` H A [.u.{.oX8   . o . . . .           + R n + % = * % * & , % + R ; .           . .     . .   # 9XI._ P.u.j ( / W Y S ",
"c h.T =.W c g.V.u.[.0Xp . o         % .         . @ @ . ( ( o + . & }.. . + +           # .   . .     + 7 9XB.x.B.A.9 / H P G S ",
"c E.E.=.P U r.M.M.[.0X( #.  % @ @ . + dX.     .   @ @ + : 4X#   o 7.@.. + @ +         # zX# o @ @ %   J ` 0Xv.B.`.H.x / / @.: D ",
"F ~.~.$.I h.F.E V.N.&X@.}.6 |.X.P Y # bXd p d     + ; @ . `.@.& / cX@ + @ @ . o     % 6 xX0 $.P @.Q O @._.9Xn.N.` P.B L / ).Y ( ",
"T  X~.| f.g.k.E b.N.;XH fX;.@X=.dX7.8.fX9XrXX.- d o ; ; + + ,XL ,X&.. + ; @   d X.3.0Xm.lXiX2XlX|.K ,.2X#.9XB.M.x.M.A n L ).{ jX",
"E. X~.| j.F.i.f._ I.[.= lXiX8 Q.Q q.lX@.qXqX8X5.[ - z d.+ . @ K > . + ; > + o d iXtXqXyX` lXw.( W f 6.fX2 ;XI._ u.x.u.b p ).Q L ",
"^.XX XQ j.F.V s.f.I.=X& J zXhX,.iXlXP n.qXeXtXw.q.5.( R.> +         + z d.& 4.] BXyXeXeXv.W lXhXw.hXlXQ O 5XI.f.y.A y.K 7 W.T 1 ",
"!.XX Xh.j.k.V s.M.b.2.= . < | ].#.: # 0XqX9XeXjXq.uXq.9Xu.+       . ; OX[.;.,.iXtXeXyXqX9Xo 1 W.|.(.4   - >XP.s.t.u.u.M 9 | E.F ",
"!.aX XF.j.V i.A z.x.2X8 .   . . .   h ) 0XeXqXyXw.uXuX'.P.@ .     . u.eX2.uXw.jXqXqXeXoX7 k     . .   . ^ <Xg.z.A u.V t.b Q E.I ",
"E.aX Xk.j.V r.i.f.Q >Xm.A m g O & [ q.[ ) OX0X0X5X4.q.3.OX> .     + I.9Xq.uX6.yXqXqXOX9 4.q.l O . 9 z l.`.fXf.s.i.A C N B I E.I ",
"h.XX XF.V i.N t.v /.<XB.I.Y.9XBXe.8.q.4.l E #XqXqX8.4.6.oXu..   . x R.{.q.q.7XeXeX#X3 4.q.8.6X6XjX&XY.Y.'.dXW.B y.C A M N v E.I ",
"T ~. Xj.M M N B F +X3XB.P.Y.Y.9XVX6X8.4.4.k f.#XOXwX,.4.'.R.>   . y.eX%.,.6.yXxX#XD ;.q.6.e.BXZX&XT.T.Y.'.dX/.> M t.x C N v T U ",
"U ~.j.V V M x > J +X3Xm.V.N.P.T.0XcX6X6.4.4.l Q.#X0X0.4.%.*XN.  * OXOX,.6.8XeX#XR ,.6.>.2.BXyX*XY.oXOXP.-XdX/.c z C C C M x F I ",
"F U r.M M z > : @.+X2Xn.V.I.N.T.T.Y.tX6X6.4.4.l N.OX9X,.,.I.R.w o.0XB.6.8.eX#XE [ 6.2.2.ZXqX*XT.Y.I.I.M.`.dX/.P + > M x C x v F ",
"F V N x z ; @ r $.+X2XK E M.b.H.L.L.T.0XBX6.4.5.l {.OX3X4.[.0XO.:XqX` <.4X#Xh.l 6.<.0.AX*XT.T.L.H.M.x.m ~ dX+X@.O % ; C z x v F ",
"c V x > + + o +.$.+X9.w . % 9 l.H.L.T.R.qXZX0.,.,.g P.0X6.1.*X2.,X0X .3.0XM.l 6.<.hXyX*XT.T.Y.z.m : . O j dX+X@.h   + @ z z z c ",
"Q R > . o   @.7.$.+X9.>.[ ] 0 O ; Z P.R.R.T.yXe.,.,.~ Y.;X,.0X1X5X[.>.9XN.X.8.8.8X0X*XR.R.M.m + - h [ X.<.dX/.@.O.P   . + > > c ",
"3 J L . . 4 |.dX$.+X9.+.l l k ;.k 0 % m P.K.*XDXSXkX6.n Y.0.ZXSXSXjX3.I.X.jXSXnXvX*XY.g.> o h ,.q.q.,./ <.<X/.@.}.G 4   . H ` n ",
"; ; K . o )._.$.@.+X2Xo.g / j ,.:.:.:.k = (.lXH ; &.cX,.-X8X1.*.3.0.cX2.hX].@ + S lXK 0 ] 4.q.q.4.>./ / 2.dX/.@. .W.Q & . 3 % . ",
"> A b.a +.P _. .} /.2X3.0.o.( o.O.;.:.:.4.@X4 a 3Xp _.6X3.'.cX,XjXbX3.hX|.$ :XjXi G |.4.4.4.6.6.<.o.1.1X0.<X/.@.[ !.W ..H x.B @ ",
"z V c.`.+...@.] } /.2XB.;X;X5X3X0.8.,.,.<.^.6 ].#.}.(.2X'.].%.,X2Xo.lXo.^.#.|.#.&.^ +X6.<.8.6XhXjXcXtX9X[.<X^.} ] #.( ..v.l.Z > ",
"z B x.[.+.#. .*.} ^.2XN.P.oXOX#XeXyXtXhX<.sX8.H (.P ^.( {.#.(.o.`.:XP |.| Q R (.i hX/.e.ZXcXyXeX#X#XwXwXV.}.^.| +.} #./ v.A Z z ",
"> B b.V...#.=.f } ^.2XN.I.h.^.OX#XR.OXR.b _.SXX.w :XQ ' _.].*.}.` _.~ oXp |./ - 8.cXR x.*XT.T.OX#XoXK n V.<X^.| d $.| L v.l.m > ",
"+ z Z N.+.P W.}.} ^.1Xc.P.Z g.J.J.L.L.L.; % 4XbXbXQ . #.}._.P 4 H ' %.oXq 3 lXnXcXW.+ C L.L.L.T.K.H.B z E :X^.Q }.W W P c.x.> > ",
"+ B ; f...Q W |.W /.1XZ A u.z.z.y.t.t.t.@ . . $ + . / n wXf (.` ( , 5X{.q - . 3 ; . . b y.z.z.M.z.H.u.; 5 :X^.Q }.P Q P x.> x @ ",
"+ B 3 a $.| K ^.P ^.9.2 : : @ o O 0 d ] X       . Z 9X+ ].3X- . . ( eXn m 9Xp         - k w o o % : : : 5 7.~.Q ).W | W J 3 M . ",
"+ @ +  .@.W.Q P P /.9.6 - w h ] [ ;.;.5.-   5 b d.H.H   # (.lX<XoXoXn . * i.U.c.1     k ,.:.:.;.k h 0 & = 7.~.Q L !.!.P J , > . ",
"+ . #. ./ R T ..P ^.8.j j l :.:.[ [ X.<.1XwXR.K.y.h 4.n.+ . % 2 : o   1 3.[ Z U.U.I.`.2.<.X.[ ;.:.:.k d j 7.Q.Q j ).W.p J W . . ",
". . )./  .J P p P ^.8.j w w h j / 2.5XeX#X.XD.C d ;.;XI.o . +   . +   x OX1.[ 1 k.U.OX0X;X=XX.f d d 0 0 j 7.!.W ^ W W.i J W.3 . ",
". 1 )./ ..P | @.W !.9.j - w / 3.;XoXOXOXG.d.> d ;.].U._ l z @   . ; . = D.OX<.;.5 u.U.U.U.Y.V.=Xo.f w w j 7.!.W d u (.L J Q F $ ",
"$ Y ). .P P W L G !.8.%.3.-XN.H.L.J.J.S.y.@ d [ =.U.H.j X.P.s.  ; D.) [ E .XoXO.X.6 x F..XJ.J.H.z.m.=X1.o.*.E.G a P J P H W F D ",
"F F )./ W P G r G !.2.u.s.A.A.A.J.S.C.x o r j %.OXU.Z h ..D.P.d ~ K.[.[ j F.G.[./ [ 0 ; s.J.J.S.Z.C.a.i.v.=.h.G r P ` J H W S c ",
"G Y ).L J P p ..F W.3.y.a.k.k.Z.a.p.> O r f ^ I.OXd.r f b.U.M.k ( D.F./ l K G.U.n.j [ s @ A Z.Z.S.k.d.a.u.*.E.K / 7 K 5 y W S c ",
"F Y ).j L y J u P W.3.y.a.V y.y.M @ - k j g {.OX.XK f g P.K.x.] j A.U.R j i i..XK.' j [ d O z p.d.j.r.a.u.*.T G H J v 6 y W S D ",
"F Y #.j ^ H t w P | 2.t.y.y.N z . = k k r n.K.OX^.r f ~ K.L.) ] / d.D.g.j d n A.K.H.) f k h O ; A r.p.a.u.*.T G 0 y 3 r y W S D ",
"D F | f P S P a F Q 2.C N B ; O - w w q ) Z.J.H.J r r ' D.K.~ ] / s.S.F.a w w t.S.J.C.~ j d d = % C t.t.C $.T F r F J i y W D S ",
"D S W f J H J r F Q <.M x : & w w w 6 ( a.J.S.y.i q q Q.G.G.g h a f.Z.F.P d q 9 C.S.Z.g.^ 6 d d - o z B m @.T F i G D a t W D S ",
"4 S ` r H 4 2 0 F R +.> # w <.8.<.d ( p.C.C.d.n q 6 g  X.X.Xf d a R k.F.E r r q A a.A.d.E f f >.>.h O 1 n @.T F w 4 c - q P c c ",
"1 1 ` r w - d w D I o.o 6.jX4X4XcXVX5Xa.a.a.u.7 q q W F..X~.p d a P F. Xj.p r 6 n u.C.a.s.7XVXSXcXkXhX- # ..F D 0 w * w w L 3 3 ",
", , @.j j h h h y J +.O.{.F + . 3 |.ZX%Xa.p.b 6 r a g.A.G.j.i w r H F.G.A.K q w 6 B y.d.5XcX^.3 @ c ^.3Xf / D J j j j j f ..< 1 ",
"u L =.*.%.%.%.*./ *.2.).v o R #.p + {.jXz.t.7 6 6 p d.Z.A.g.i k f H F.D.Z.E 7 w 6 n r.c.cXh.. i ~ # % Q.=.2.@.@.&.%.%.%.%.*.^ t ",
"o # = . & i 7 o   y X.h.= W R c Q.8 3 4Xm.B 6 6 6 H d.C.A.f.q -.f a d.Z.C.u.7 w - = t.b./.$ S Q.U h.& 3 )...$ o = 8 8 & . = , * ",
"= * 7 2 L 8 t ( # t j h.w Q J D v W . ].' n q 6 6 K p.a.d.E 6 -.f a d.Z.C.p.4 - - - m v.h.  T c y I 9 * T / $ & #.W W W 8 6 : , ",
"= , p y 4 8 2 t p t r h./ c b.P h.y = Q.~ 7 6 w 6 E s.s.s.E 7 -.f a i.C.C.i.D q 6 5 7 R h.& D h.J h.r L U ^ $ H W K H D S t 1 2 ",
", , a t q y 4 u t 8 r F }.6 1 I < j P I 9 q w w t f.i.i.s.R i -.j ^ f.d.p.i.E i q 6 6 9 h./ 6 3 v : h (.c ^ : J c 4 4 : 1 y 4 2 ",
"= , i 7 7 8 4 y 2 2 X., Q.3.- . j +.Q.: 8 q q q H f.f.i.g.R g ;.j / E g.f.f.E y q 6 q 7 3 ).+.d O - 3.h.f o.: 4 D 3 1 : 3 t 2 , ",
"= , i 2 2 2 1 t 5 2 o.>.7 W.<X3X,XQ.3 & q r i i K E f.f.f.R g ;. ./ R f.f.E E K i r i a o F Q.:X>X,XT i <...$ 7 4 , : < < 7 1 , ",
"& = a q i / L p w 7 ^ X.>.[ 7 3 : . . 5 ^ ^ a p K R R R E ) ^ ;.X.( R E E E E R g ^ / / 6 . # 3 c < X.2.j  ., w q y 7 8 5 w 2 = "
};
