/* XPM */
static char *_41725012576[] = {
/* columns rows colors chars-per-pixel */
"64 64 92 1 ",
"  c None",
". c #020202",
"X c #070807",
"o c #0E0E0E",
"O c #161615",
"+ c #171817",
"@ c #191817",
"# c #1C1C1C",
"$ c #211D1E",
"% c #22211F",
"& c #1F1F20",
"* c #201E20",
"= c #1F2021",
"- c #242424",
"; c #292625",
": c #262926",
"> c #292827",
", c #272729",
"< c #272A2A",
"1 c #2C2C2C",
"2 c #302F2F",
"3 c #30302F",
"4 c #2F2F31",
"5 c #312F31",
"6 c #343334",
"7 c #393737",
"8 c #393837",
"9 c #373739",
"0 c #383639",
"q c #373939",
"w c #3B3B3B",
"e c #42413F",
"r c #3F3F40",
"t c #444444",
"y c #4A4743",
"u c #484847",
"i c #474748",
"p c #4B4B4B",
"a c #50514F",
"s c #4F5050",
"d c #545454",
"f c #595757",
"g c #575857",
"h c #595857",
"j c #5B5B5B",
"k c #6A655D",
"l c #636363",
"z c #6C6A65",
"x c #6C6C6C",
"c c #71716F",
"v c #6E6E71",
"b c #747473",
"n c #787877",
"m c #777778",
"M c #787778",
"N c #777878",
"B c #7C7C7C",
"V c #80807F",
"C c #858484",
"Z c #85858A",
"A c #898788",
"S c #8B8B8B",
"D c #90908F",
"F c #8F8F90",
"G c #908F90",
"H c #8F9090",
"J c #939493",
"K c #989897",
"L c #9B9B9B",
"P c #9F9FA0",
"I c #A3A3A4",
"U c #ACACAB",
"Y c #B4B4B4",
"T c #B7B8B7",
"R c #B7B7B9",
"E c #BBBBBB",
"W c #C1BFC1",
"Q c #C3C3C3",
"! c #CCCCCC",
"~ c #D0D0CF",
"^ c #CECED0",
"/ c #CFD1D0",
"( c #D4D4D4",
") c #D7D8D8",
"_ c #DCDCDC",
"` c #E0E1DF",
"' c #E5E5E5",
"] c #E7E8E7",
"[ c #E7E7E8",
"{ c #EDEDED",
"} c #F0EFEF",
"| c #F1F0EF",
/* pixels */
"                                                #*#$#$$****----%",
"                                                **-<411,,,15141:",
"                                                $:-<2,1>216632<:",
"                                                #>16655655551>%:",
"                                                #168756pxb01>;;-",
"                                                #666521wxCi:-%%$",
"                                                #6652>#>td6--%>1",
"                                                #166>-@#>1%%---2",
"                                                #454,-&#*##*-143",
"                                                #1,>:*&####-:166",
"                                                #>>-&##@###:146w",
"                                                #---##&@@$-1488t",
"                                                #-###@OO##,468tr",
"                                                #-*#@+O@#-186tup",
"                                                ####+++#-:16wipp",
"                                                @#@++@##-168tppd",
"                                                @#OO+@#*-16tiddj",
"                                                +OOO##&:15wipdfj",
"                                                OO##*--,10wpdjjf",
"                                                OO@##*-4rpipdjxd",
"                                                @&&*,:>txbdailxl",
"                                                O&-*--:0xAgddwzb",
"                                                @&--11->tfpjIdwb",
"                                                @-,,11-*1tjlEvdr",
"                                                @:>156116dglEnnd",
"                                                #>1668wtudlvENVB",
"                                                #:6669w:0jkxTNAS",
"                                                #>60wwO1qrxmECJJ",
"                                                &276w:Xo1wxbECHJ",
"                                                #1wt6&#.-uxBRSJL",
"                                                #6tw611.%tcCEJLP",
"                                                #6twqp4X#tbATJPP",
"                                                *6t8pp6.#pBSELLI",
"                                                #wtwpp6.#dBHELII",
"                                                #wp6dd6.#dBKEIUU",
"                                                =tpwdd>.-6AHQUUY",
"                                                -tuqdp#o*6SKWUUY",
"                                                #tp8p1#<6mSIQUTY",
"                                                =yp8661jcBJLEUTT",
"                                                =ttw8tjvbAJIQEW!",
"                                                &ifgjllsvZJIQEW_",
"                                                -sllllwwzSAUQE_(",
"                                                -dllzj#>udBTE__/",
"                                                -dllxj:#-jIU!!~/",
"                                                -glxblstjLIE!(()",
"                                                -dlxxxcMCJUE!()_",
"                                                :jvbbbMBSKUQ^)`_",
"                                                -jvbbnMCDLTQ()']",
"                                                >jvbNNBAHIYQ)_]{",
"                                                >lbmNBCSKIE!_]|}",
"                                                >lbMBBCSKUT/_{}{",
"                                                >lBBVCASKUQ)'}}{",
"                                                >lMBAASHLUQ)]{]'",
"                                                1lCCAASJLT!']]'_",
"                                                -zZCAHHLIE!)''`_",
"                                                :xAAACHJPY!))`))",
"                                                1mSSHSAjcGE))_))",
"                                                1NSSJSd8vSY((((!",
"                                                1BSFSKp-idK!~(~!",
"                                                1MJJKLmpaBE!!!!Q",
"                                                3BKKKLKAFYQWQ!QE",
"                                                3BLLLLJJLUTEQWRT",
"                                                7bCCVMBBCASJJJDD",
"                                                -666664116666766"
};
