/* XPM */
static char *_1725017427[] = {
/* columns rows colors chars-per-pixel */
"64 64 256 2 ",
"   c #050304",
".  c #0B0404",
"X  c #060807",
"o  c #0D0806",
"O  c #0D0B0A",
"+  c #130404",
"@  c #1B0404",
"#  c #130A06",
"$  c #1C0A05",
"%  c #190708",
"&  c #140C0A",
"*  c #1C0D09",
"=  c #1A120C",
"-  c #1A1915",
";  c #270807",
":  c #230C09",
">  c #380809",
",  c #23130B",
"<  c #271308",
"1  c #2B150B",
"2  c #2B1A0D",
"3  c #371609",
"4  c #341B0C",
"5  c #251915",
"6  c #241D14",
"7  c #2C1C12",
"8  c #321D14",
"9  c #391915",
"0  c #1B221B",
"q  c #2B2116",
"w  c #24241C",
"e  c #2B241A",
"r  c #28261B",
"t  c #342314",
"y  c #3B2413",
"u  c #3C2812",
"i  c #32251A",
"p  c #392819",
"a  c #3B2C1D",
"s  c #1D3027",
"d  c #292C23",
"f  c #332D23",
"g  c #3C2D25",
"h  c #29342A",
"j  c #383428",
"k  c #293A33",
"l  c #373D33",
"z  c #470A0B",
"x  c #590A0C",
"c  c #461A09",
"v  c #57190B",
"b  c #4C0C12",
"n  c #461814",
"m  c #581616",
"M  c #650A0C",
"N  c #770B0D",
"B  c #69100F",
"V  c #76130B",
"C  c #760C13",
"Z  c #681616",
"A  c #791514",
"S  c #43220B",
"D  c #4B250A",
"F  c #56280A",
"G  c #5A330C",
"H  c #462716",
"J  c #4A2C14",
"K  c #562916",
"L  c #48331C",
"P  c #583619",
"I  c #66290A",
"U  c #752808",
"Y  c #693709",
"T  c #77360A",
"R  c #672918",
"E  c #772518",
"W  c #673918",
"Q  c #763A16",
"!  c #6D1D21",
"~  c #4D2E28",
"^  c #433423",
"/  c #483927",
"(  c #573926",
")  c #672826",
"_  c #782826",
"`  c #673926",
"'  c #75372F",
"]  c #2D4434",
"[  c #374739",
"{  c #76460D",
"}  c #67421B",
"|  c #774419",
" . c #49412B",
".. c #56452A",
"X. c #494638",
"o. c #574736",
"O. c #4F523A",
"+. c #595239",
"@. c #684928",
"#. c #764926",
"$. c #755429",
"%. c #694836",
"&. c #784736",
"*. c #6C5631",
"=. c #6A5438",
"-. c #765738",
";. c #263944",
":. c #385349",
">. c #346855",
",. c #4F5146",
"<. c #475749",
"1. c #585747",
"2. c #6C4E46",
"3. c #655947",
"4. c #755A48",
"5. c #476857",
"6. c #4F6B56",
"7. c #586655",
"8. c #756346",
"9. c #696856",
"0. c #726F52",
"q. c #776A58",
"w. c #527764",
"e. c #6B786A",
"r. c #797465",
"t. c #8E140B",
"y. c #890A16",
"u. c #970C16",
"i. c #891618",
"p. c #971816",
"a. c #A80C13",
"s. c #B70817",
"d. c #A71818",
"f. c #B81619",
"g. c #852518",
"h. c #95251C",
"j. c #8B3511",
"k. c #AB2D0F",
"l. c #B62716",
"z. c #911621",
"x. c #AE1422",
"c. c #842823",
"v. c #962826",
"b. c #88382B",
"n. c #97352C",
"m. c #8B3732",
"M. c #973836",
"N. c #A52728",
"B. c #AE2E2C",
"V. c #A83A37",
"C. c #B83735",
"Z. c #C70916",
"A. c #DA0718",
"S. c #CC1418",
"D. c #E7061C",
"F. c #EC1B1B",
"G. c #CA2E16",
"H. c #EA2F17",
"J. c #D11324",
"K. c #EC0825",
"L. c #F51726",
"P. c #F4102D",
"I. c #C7292A",
"U. c #D13233",
"Y. c #F0302A",
"T. c #EA2934",
"R. c #F82739",
"E. c #F8383B",
"W. c #8A460A",
"Q. c #864619",
"!. c #994819",
"~. c #935115",
"^. c #AC4D0F",
"/. c #A95918",
"(. c #B5661B",
"). c #864A26",
"_. c #875327",
"`. c #91562D",
"'. c #88473A",
"]. c #994639",
"[. c #9A5738",
"{. c #A7463A",
"}. c #B15230",
"|. c #8E6638",
" X c #B16C30",
".X c #CC530A",
"XX c #EF4B14",
"oX c #D6730C",
"OX c #CE4A34",
"+X c #F34E31",
"@X c #C87826",
"#X c #CB7539",
"$X c #F66C37",
"%X c #A33B41",
"&X c #C93E47",
"*X c #ED3645",
"=X c #FA3945",
"-X c #865748",
";X c #955247",
":X c #AE524A",
">X c #866847",
",X c #916E4F",
"<X c #98684A",
"1X c #987648",
"2X c #846953",
"3X c #887452",
"4X c #977958",
"5X c #AE6F4F",
"6X c #A66655",
"7X c #847868",
"8X c #927767",
"9X c #B07467",
"0X c #D1524E",
"qX c #EE4F4C",
"wX c #FA5A55",
"eX c #CE6B55",
"rX c #F46C52",
"tX c #CA5D60",
"yX c #D37268",
"uX c #EC7067",
"iX c #578974",
"pX c #73876D",
"aX c #BD8038",
"sX c #E7800B",
"dX c #C88C38",
"fX c #AA854A",
"gX c #B58C50",
"hX c #9E8B60",
"jX c #91866E",
"kX c #AE8D6F",
"lX c #B79A78",
"zX c #CF914D",
"xX c #D6A84D",
"cX c #EDA552",
"vX c #CF9070",
"bX c #ED8D73",
"nX c #D8AB6E",
"mX c #E5AF6F",
"MX c #EEC776",
"NX c #FB6094",
"BX c #58C09D",
"VX c #AC9485",
"CX c #B8A997",
"ZX c #A8B6A4",
"AX c #CD9386",
"SX c #EA9290",
"DX c #D1AC8C",
"FX c #F0AB8B",
"GX c #99DDB3",
"HX c #F4CF8C",
"JX c #DBD1B7",
"KX c #EADCB7",
"LX c #F5E7B8",
"PX c #E5DBC7",
"IX c #F2ECD2",
"UX c #F6F5E5",
/* pixels */
"> > + > .         X . . . .   X X       o . # * & o o o X # H %.' ( # o   X a @.*.P a # .     o o & # . , 2 ( p ,       % + . + ",
"> ; ; >     X X X X       X X   X X o o   o o O # o o o o 6XFXFXFXbX:X% o   X   o < ( -.'.( / a a H K P a t &         X @ @ + + ",
"z @ z >           . X         . o o o o o o # O & # o o @.bXSXvX8X;XeXK & . o X o o o = = 2 q 2 2 # &   X     X         @ ; % + ",
"> ; > ; * * , < 7 4 S J G G } | $.$.|.>X|.fXfXgXgXlXvXkX{.}.rX6X~ ~ v n.vXlXlXlXhXhX1X|.|.-.$._.@.@.} P G J S u 1 , * & * : % + ",
"@ > : < c D G Y { { { W.~._./.dXdXxXxXxXMXMXHXHXHXFXtXbX&.' v.eX:Xc z n :XuXHXLXHXHXMXmXmXxXxXdXdXaXaX X~.{ W.{ { Y F 4 : * % + ",
"; z # 4 3 c c D D G J Q ~.~./. XaXaXxXzXnXnXnXbXbXyXyXvX;X3 R n.).m 3 eXbXeXuXbXDXnXnXnXxXzXzXgXaX X X`.$.$.G G J S 4 1 < : : % ",
"z c + 4 # 2 2 u i 0 j j f j ]  .X.,.1.7.1.3.6XtX0X;X:XyXvXVX>XR -XCX2.:X5XyXyX0XuX-X9.3.1.,.,.X.[ j f d r +.d r t t < = = 3 < ; ",
"x > : S 3 D J P } ....1.=.0.0.jXjXkXkXkXvXuXuXN.C.;X6X) DXUXUXUXUXUXLX).<X5X5XeX}.uXSXlXVXjXkX7X0.e.0.8.O.*. .} P L L y t 4 3 z ",
"v < < S H D D P @.*./ 3.1X-.>XhXkXhX9XvXwX0Xc.C.' &.&.6XKXIXPXJXIXIXLX9X' ;X&.E eX:X0XuXVX9X4X4XhX1X=.-.=.4.P @.} J S 4 J y 3 x ",
"v 3 1 J J L S @.$.@.P 9.-.>X>X1X6X9X0XqX&X_ uXc.; ; ) 5XLXGXPXJXKXBXUXnX%.: @ n M.:XtXv.tXuX9X1X>X>X8.|.+.-...@.P H y u J S 4 V ",
"; 3 < L J L J } } @...r.4.2X6X0X&XU.&Xz._ tX:X:X6X'.` _.kXBXIXKXUXBXZXlX'.-X2.;XyX;X~ tX:Xz.&XwX5X6X2X3.9.-./ #.P P u u y J t I ",
"; 3 1 ( p W P } P K ' ].C.N._ _ C.N.M %XtX_ :X` :X) P ..= s JXJXKX] & @.;Xn 5X].;X;XyXn ! tXtXM.N.C.OX:X:X'.( W } } L y i J 3 R ",
"$ 3 < P L ( ..L ' b 9 n ) ' _ b ; ! 0X%Xx 0X9 H n n p PX8XH % 2.r t 7XUX9.% Z %.1 m.Z tX6Xn > ) %X%Xm._ m ) ) _ ..+. .L ^ J 2 D ",
"$ F D P 4 4 t E B.v.n n n ) _ M.0Xm.b x 0XbX9 . % 1 -XVXSXCX%XNXU.jXDXtX8X~ @ + + bXtXm ! :X%X2.~ ~ ) _ m 9 m.v.R u q 4 2 P S D ",
"< F F @./ j ~ N.N.%X%X  O ; > : + @ c.M.) n % . + 1 R + > ,.` x m r.9 % ( 9   . . 9 ) :X6X&.n m m b 9 O   ' C.c.d.j l / L W S 3 ",
"3 T I $.@./ m B.z.%X0X%   X O % @ % % . .   . . + K : @ . r.,.. l ZXX % % 9 % . . . O . O ; n 9 % O X X . ;XU._ I.H  ...L W D c ",
"3 T Y $.` L i.{.i.}.0X9     .   . +             + R n + $ * * + * & , @ + R ; .             .     . O   + 0XU._ I.i.j ( / W Y D ",
"c j.T -.W n j.C.c.{.*Xg .           o X       X . @ + . P ( . # o O <X. + + @         X + .   . O   . . 9 eX].c.V.f.9 / L L G D ",
"D W.W.$.R U t.v.N.{.qX( #.  + @ @   + fX      X   @ @ + * 4X*   o 8.`   + @ +         o xXo O @ % +   H } qXb.V.].I.m / ^ @.: D ",
"F ^.^.| I j.G.E V.N.*X@.|.q  Xo.P I & nXd p w     + ; @ . '.@.* ^ nX@ + @ @   X     # r cX0 $.W @.Q O @.|.0Xb.B.' I.C H / _.Y ( ",
"Y .X^.| g.t.l.Q n.B.OXa gX:.#X-.fX8.7.gX0XtX,.= d O ; ; + + <XH >X#.. + ; @   d [ 4.qXM.zXpX3XdX XK 7.3X#.0XV.N.c.N.A n L _.{ kX",
"W.oX^.{ k.l.p.i.c.U.{.= zXpXH !.Q w.xX%.qXwX9X7.[ - z f.+ . ; K > . + ; > + X d pXuXwXuX` dXpX( W d 7.gXq }.U._ i.c.i.x p ).Q L ",
"/.oXoXT ^.G.V d.h.U.-XO J nXjX<.pXzXP m.wXrXyXpXw.6.( E.> +         + z I.& 5.:.VXrXuXuXc.W zXhXe.jXzXW X 6XU._ u.A u.K 2 Q.T 3 ",
"~.sX.Xk.k.l.A d.N.n.=.=   < #.[.| $ & wXwX0XuX9XiXiX7.0Xy.+       . ; E.{.:.:.pXuXwXbXwX0X. 1 Q.[.Q.4   - <XU.d.i.A i.M 9 { j.F ",
"~.sX.X.Xk.V a.A d.b.3X8 . .   .   X h ) wXrXwXuXr.w.w.;XI.% .     + g.rX8.iXiXkXrXwXrX0X9 k     . .     ^ 4Xv.x.A i.C y.z | W.I ",
"W.sX.XG.k.V t.p.h.| ,Xn.A m g O O [ w.[ R qX+XqX9X5.w.4.+X> .     @ U.qX6.iX7.yXwXrXqX9 5.e.[ X   9 z z.M.gXj.p.z.A A C x I W.I ",
"T oX.XG.V t.N y.v /.1XV.U.T.0XVXr.9.w.5.[ E $XwXwX9.5.7.OXi..     x R.}.w.7.8XrX$X$X3 <.6.9.7XjXVX*XT.T.].fXQ.C a.C A M V v W.I ",
"T .X^.k.x M y.B F @X4XV.J.T.*XqXCXr.9.5.5.h g.rXOXtX<.5.].E.>     u.rX@.<.4.uXcX$Xn :.w.7.r.VXAX*XR.R.T.%XgX(.> M y.M C N x { I ",
"U ^.k.V V M x ; J @X4X].C.f.B.*XqXvX7X7.5.5.l !.$XwX2X5.%.=Xf.  % +X+X<.6.9XrX$XR <.7.1.2.VXuX*XT.OX+XI.].gX(.c z M C N M M F I ",
"F U t.M x z > : ..@X3Xm.C.U.C.P.P.*XyXpX7.<.5.l B.+XtX<.,.&XqXw o.qXM.6.q.rX$XE [ w.3.3.VXwX*XT.T.U.U.N.'.fX(.P + z x x M x v F ",
"v V V x z ; @ r $.dX3XK A N.M.J.P.P.*XwXVX7.5.5. .OX+X,X5.%X=X,.2XwX` 1.eX$Xj.l 1.1.q.SX=XR.R.P.J.N.g.v ~ fX(.@.O + ; N z x v F ",
"c V x > @ +   +.$.@X3Xw X % 9 z.J.P.R.E.wXAXq.<.<.j U.qX7.%.*X3.<XqX/ 4.qXN.[ 3.1.jXNX=XR.R.T.x.m : . X j fX@X@.h   . ; z z z c ",
"E R > + o X @.8.$.@X2X1.[ ] 0 o ; Z C.E.E.R.uXq.<.<.~ T.:X<.qX2X5X}.,.0XB.O.9.9.vX=X=XE.E.N.b % - s ;.X.1.fX(.*.O.P   . . > > z ",
"3 K L o   p  XgX$.@X0.1./ l k :.k - @ x I.P.=XFXDXlX7.n *X9.vXCXDXkX-X&Xo.jXDXnXbXE.T.p.3 o h <.w.w.<./ 1.1X(.$.-.G 4     H ` 9 ",
"; ; K o o _.`.$.} @X2X,.j / j <.>.5.>.k & ).zXv : &.vX<.-X9X%.2.4.q.vX2.hX[.* % c zXK - ] 5.w.7.5.,./ / 1.fX(.@. .Q.| = . 4 *   ",
"z Z n.u +.L ~. .} (.q.4.q.o./ o.,.:.5.>.5.#X4 a 4Xp `.7X8.'.vX<XlXnX4.7X X$ [.kXi P 5X5.>.6.7.7.1.,.2.q.q.fX(.@.[ ~.Y ..H c.B @ ",
"z V v.'.+...@.] } (.3XV.:X:X6X4Xq.9.<.<.1.(.5 [.#.|.).,X[.[.%.<X2Xo.zX.. X@. X).&./ @X7.1.9.r.VXVXvXyX:X}.|./.{ ] #.....b.i.Z > ",
"z V c.].O.| / *...(.3XN.I.OXOX$XuXyXyXjX1.#X9.n ).K /.( }.%._.%._.>XR 5X| Q R b.i hX(.2XVXAXuXrX$X+XrX5XOX1X(.} @.} )./ b.y.Z b ",
"> B n.}...$.*.d @./.2XB.U.j.^.+X+X=XqXE.b `.DX,.d 2XR ' `.[.$.-X` ].~ OXg  X( - 0.zX) z.=XR.R.+X$XOXv D C.fX/.{ d $.| ^ b.z.v z ",
"+ z Z B.+.P _.|.} /.8.v.I.Z v.K.K.P.P.P.; o  XmXvXQ . #.[.`.~ 8 H Q %.OX8 1 zXmXvXb.. y.P.P.P.R.R.F.M z A |./.} 8.Q W P n.i.> ; ",
"+ M ; c...} W /.} (.0.Z A i.f.x.d.y.y.y.@ . . : +   / H eXh b.` ( - :X}.f - + 1 ; . . b u.x.x.N.x.J.i.; 6 |./.Q  XG Q W c.> x @ ",
". C 3 a $.| P `.P /.0.9 : : +   X 0 d ] .       X Z qXX `.kX-   . ` rXn H 0X9 . .     - k d X O @ : @ , 5 8.^.{ _.W | W L 1 M   ",
"+ @ +  .@.j.T P P (.0.w - 0 k ] :.:.:.5.-   5 b s.J.p   % Q.zX5XOXOX3   * p.F.v.1     k :.>.>.:.k s 0 O - 8.^.W L ~.Q.L J , > . ",
"+ . #. ./ W U ..G /.0.j j l >.>.:.l X.1.2XeXE.L.u.h 5.b.+   * 2 < +   < 4.:.Z Y.Y.U.'.3.,.l :.:.>.>.] d f 8.!.Q j ~.Q.a J W + . ",
"  o _./ ..J P p P /.9.h 0 d j l / 4.1XrX+XXXL.C s >.5XT.O   +   o o   m +X2.[ 1 l.Y.+X+X:X>X/ f s s 0 0 h 8.~.Y L W Q.p J Q.4   ",
"  2 _.[ @.P | @.Y `.0.j - w ~ 4.:XU.XX+XXXZ.> d :.[.Y.i.j z +   . @ . - J.+X1.:.5 y.Y.+XY.R.&X'.o.f r w f 8.~.Y d H #.L J Q F $ ",
"$ { _. .P P W L G ~.9.%.2.%XB.J.P.K.K.K.u.% d [ 8.Y.J.j [ U.f.  < F.) [ E XXOXO.X.- m G.+XK.K.D.x.M.-X2.+.=.W.G a P J ( J Y G D ",
"F F _. .} P G d G ~.3.i.x.J.S.S.K.K.Z.x O w j %.Y.Y.R h ` F.I.d K L.{.[ / l.Y.]./ [ 0 ; f.D.K.D.A.J.s.z.' =.j.P r P } J H W c c ",
"G { _.a J P p ..G Q.8.u.s.l.d.A.s.a.> & d f / U.+Xl.d f b.Y.f.k ( F.l./ l m F.Y.m.j [ 0 % C Z.D.K.l.f.f.i.=.W.K / q K 5 u W D c ",
"F Y _.j L t J u G Q.4.u.s.V u.u.M @ & k j g }.+XXXY i j I.L.c.] j G.Y.W j f h.XXL.' h :.d O b a.s.p.u.s.i.=.T K u J c q y W S D ",
"F G | j ^ H t r G { 3.y.a.u.y.z X - k k i m.L.+X/.i j / L.L.) s / x.F.h.j d n J.L.J.) h k h X : A t.a.s.i.%.T G 0 u 4 r S W S D ",
"D G | a P H P f D W 3.A N C ; X - w w e ) K.K.F.J q i ' F.L.~ ] / N.D.G.a r 7 y.D.K.Z.~ j d h = + C u.y.A &.T F i D J i u W D S ",
"D S } a H H J q G T 1.B x : = 5 w w w ~ s.K.D.u.t e r !.H.F.g k a g.A.G.( e q 9 Z.D.A.h.g w d r - + b C m @.U J i I D a t } S S ",
"3 u @.r H c 7 0 K R +.> + w 1.e.,.h ( x.Z.Z.s.n e q a .XXXXXf d a W l.G.Q i q e A s.S.S.A f f ,.,.h O 1 n %.T F 0 4 c - q P 3 c ",
"1 < } r w , d r J I X.. 1.kX5XeXvXCX6Xs.s.s.i.6 e q W G.XX^.a d i P G.XXk.g e 5 n i.f.s.d.8XDXDXvXlX7X5 o o.I D 0 d = r q L 3 3 ",
"2 < @.f h h h h u D 1.O.}.F + X 4 :XAX&Xs.u.b e e a h.S.G.k.i d i c G.H.S.K q w 5 Z a.d.6XvX`.c @ c /.4Xd / D H h j j j f ..< 3 ",
"p L -.-.%.%.%.=./ =.3._.v O K ).9 + }.kXx.y.5 6 6 u k.A.S.h.8 k d H G.A.A.U q q 0 c u.h.vXj.. i / & + !.-.3.@.@.-.#.%.%.=.=.L t ",
"+ o *   & t 6 o . y O.j.= W R n !.8 < 5XM.B 6 e 6 J Z.Z.S.g.5 ;.d a l.A.Z.t.2 q 6 = y.b.(.# S !.U j.& 3 `...% o = q 7 & . < , % ",
"= * 5 2 L q t ( & t f Q.w j.D D F W   }.'.b 5 5 6 K a.f.Z.E 5 ;.f a l.A.Z.a.t - = - b b.j.  T c H v 9 * T / $ & $.W W W 8 2 : , ",
"= , u u 4 t 2 t p 8 q j. .D n.L j.y = !.~ 5 5 e 5 E d.p.a.E e ;.j a p.Z.Z.p.D q 6 6 8 R j.& K j.J j.r ^ U ^ % H W K H c S t < 2 ",
", 2 p t 7 y 4 p t 8 r I -.w 1 R < j P R 8 7 q q 8 g.p.p.d.R i ;.j ^ j.f.t.p.U i q 6 5 y j./ 0 z v ; h ).c ^ ; K c 4 4 : 3 y 3 2 ",
"= , t 7 7 7 4 y 2 1 X., ~.8.-   j +.j., t w q q J g.j.p.p.) j :.j / E h.t.j.E y q w q 2 3 ~.+.d # 0 8.j.d o.: 4 D 3 1 , 3 t 1 , ",
"= 2 i 2 2 2 2 4 , 7 o.,.8 Q 5X,X<X!.3 & e i e i K E g.g.i.K g :.X./ R g.g.A i.K i i e a   F ~.>X,X<XT i 1...: 2 4 , : < : q 1 = ",
"= = a r i / L p q q ^ X.,.X.7 1 ;     6 g L L a ) R R I _ ) g :.X.( R R E E E R g / / / 5   $ 3 c < X.3.j  ., w e y 2 t - q 2 = "
};
