/* XPM */
static char *Group_291726283334[] = {
/* columns rows colors chars-per-pixel */
"20 64 75 1 ",
"  c None",
". c #0A0A0A",
"X c #0F0F10",
"o c #100F10",
"O c #151414",
"+ c #181616",
"@ c #181817",
"# c #181718",
"$ c #171818",
"% c #1C1C1C",
"& c #211D1D",
"* c #20201F",
"= c #242323",
"- c #282727",
"; c #282827",
": c #272729",
"> c #282729",
", c #272928",
"< c #2C2B2C",
"1 c #312E2F",
"2 c #2F302D",
"3 c #31312F",
"4 c #2F2F31",
"5 c #322E32",
"6 c #2E3030",
"7 c #333333",
"8 c #373837",
"9 c #3A3937",
"0 c #373738",
"q c #373838",
"w c #3B3B3C",
"e c #403F3F",
"r c #3E403F",
"t c #3D3F41",
"y c #3E4242",
"u c #444444",
"i c #494745",
"p c #4C4B4B",
"a c #514F4D",
"s c #4E4F51",
"d c #504F50",
"f c #535353",
"g c #5A5657",
"h c #5C5C5C",
"j c #605F5F",
"k c #60605F",
"l c #5F5F60",
"z c #646364",
"x c #6C6B6C",
"c c #7A756C",
"v c #6F6F70",
"b c #727272",
"n c #777877",
"m c #7A7A7A",
"M c #807F80",
"N c #848483",
"B c #8C8D8C",
"V c #90908F",
"C c #949494",
"Z c #979898",
"A c #9B9B9B",
"S c #9F9FA0",
"D c #A4A4A4",
"F c #AAAAAB",
"G c #B0AFB0",
"H c #B3B3B3",
"J c #B7B8B8",
"K c #BCBCBC",
"L c #BFBFC1",
"P c #C4C4C4",
"I c #CDCDCC",
"U c #D3D3D3",
"Y c #DADADA",
"T c #E5E5E4",
"R c #ECECEC",
/* pixels */
"          <51<<=&#o$",
"          50ryw5=%O$",
"          59yew5,=@#",
"          7eapuw>%O#",
"          4igdigz4OO",
"          7fdiwpx0XO",
"          7fdi>5i=o$",
"          1ppw=*-OXO",
"          6pu9<=#O.$",
"          7iw9:=$XOO",
"          <e84-%OOO#",
"          <w0<-%$OO#",
"          <7<:*%$$O#",
"          27<-*%*$$#",
"          <<,=***%#%",
"          ;,=====*#%",
"          --==--=%%*",
"          ===,,<--*%",
"          =-;<02<-*%",
"          =><<77w<**",
"          ,,790pzw*%",
"          ,5797uvw=%",
"          ,0wt73u6<-",
"          <0ti0,477:",
"          <wipu0wq7,",
"          <uppspiq9,",
"          2issf7tw0:",
"          7pfg9<7ww,",
"          7sffOO,w9,",
"          7fxr-.<uw<",
"          7hhiu.-ew<",
"          7khhf.-uw<",
"          0hhvh.:iy<",
"          0xhvh.:pu<",
"          0vhmk.-pu<",
"          qbkmf.-uu<",
"          wbkmw@=pu<",
"          9blz<<psi<",
"          tchsuzzfu<",
"          tbhgvMvgp6",
"          wNNBBkvhp<",
"          uVZZxibsp2",
"          uVAZu7pys6",
"          uCSAp=2gp6",
"          iADDnfxzs7",
"          uZDDABmzf7",
"          pDHFDZNzf7",
"          iFFFDZNxf7",
"          fDHGFANxf7",
"          pFJJHDBbh7",
"          pFKKFDBxh7",
"          fJPLKFBbh0",
"          pJPPKFVbh7",
"          aKIIPFZmz0",
"          pPIIPHZmh7",
"          fPUIPGZmh7",
"          hIYUPbbvh7",
"          kIYUAibzh7",
"          hUYYZ7usf7",
"          hYTTKhfxg7",
"          kYRTUDBbf4",
"          kTRTIHVvf7",
"          xPILFCmhi,",
"          wfdpw0<=##"
};
