/* XPM */
static char * open_34_xpm[] = {
"34 34 264 2",
"  	c None",
". 	c #201D1F",
"+ 	c #222222",
"@ 	c #292A2B",
"# 	c #353335",
"$ 	c #343235",
"% 	c #312F30",
"& 	c #2D2D2E",
"* 	c #292B2B",
"= 	c #282926",
"- 	c #222120",
"; 	c #292929",
"> 	c #353534",
", 	c #444243",
"' 	c #434142",
") 	c #3D3C3E",
"! 	c #363535",
"~ 	c #2C2D2B",
"{ 	c #272826",
"] 	c #212121",
"^ 	c #343434",
"/ 	c #3E3B3C",
"( 	c #4B4A4B",
"_ 	c #818082",
": 	c #838383",
"< 	c #2C2C2C",
"[ 	c #272523",
"} 	c #252223",
"| 	c #232222",
"1 	c #353535",
"2 	c #313031",
"3 	c #585757",
"4 	c #605F61",
"5 	c #272726",
"6 	c #242322",
"7 	c #202120",
"8 	c #303030",
"9 	c #2E2E2E",
"0 	c #2F2F2F",
"a 	c #282828",
"b 	c #252525",
"c 	c #242423",
"d 	c #2A2B2A",
"e 	c #313132",
"f 	c #1F1F1F",
"g 	c #2A2929",
"h 	c #282827",
"i 	c #2B2B2B",
"j 	c #262725",
"k 	c #252524",
"l 	c #303031",
"m 	c #3A3B3B",
"n 	c #1F1E1E",
"o 	c #232322",
"p 	c #2B2A2B",
"q 	c #313131",
"r 	c #3B3B3B",
"s 	c #454545",
"t 	c #1D1D1C",
"u 	c #1D1D1D",
"v 	c #1C1C1B",
"w 	c #323332",
"x 	c #3B3A3B",
"y 	c #464646",
"z 	c #4E4D4D",
"A 	c #1A1919",
"B 	c #191918",
"C 	c #1B1A1A",
"D 	c #434343",
"E 	c #4F4E4E",
"F 	c #595959",
"G 	c #161616",
"H 	c #181717",
"I 	c #2F2F30",
"J 	c #3C3C3B",
"K 	c #454444",
"L 	c #4E4E4E",
"M 	c #575756",
"N 	c #585858",
"O 	c #181818",
"P 	c #1B1A1B",
"Q 	c #383738",
"R 	c #656566",
"S 	c #686868",
"T 	c #555454",
"U 	c #646464",
"V 	c #383838",
"W 	c #787878",
"X 	c #8A8A8A",
"Y 	c #656464",
"Z 	c #737373",
"` 	c #1C1C1C",
" .	c #262625",
"..	c #3C3C3C",
"+.	c #3D3D3D",
"@.	c #616060",
"#.	c #939393",
"$.	c #797879",
"%.	c #565656",
"&.	c #1E1E1E",
"*.	c #2D2C2C",
"=.	c #393939",
"-.	c #555455",
";.	c #636363",
">.	c #6F6F6F",
",.	c #999A99",
"'.	c #858586",
").	c #767675",
"!.	c #21211F",
"~.	c #323233",
"{.	c #3F3F3F",
"].	c #4B4C4C",
"^.	c #424344",
"/.	c #6C6B6A",
"(.	c #9C9C9D",
"_.	c #8D8D8E",
":.	c #929291",
"<.	c #222221",
"[.	c #3A3939",
"}.	c #404040",
"|.	c #282728",
"1.	c #2A2B2C",
"2.	c #6E6C6C",
"3.	c #A09FA0",
"4.	c #949494",
"5.	c #999999",
"6.	c #555555",
"7.	c #727272",
"8.	c #A6A5A5",
"9.	c #9D9D9D",
"0.	c #A0A0A0",
"a.	c #262624",
"b.	c #414040",
"c.	c #4F5152",
"d.	c #626264",
"e.	c #1D1D1E",
"f.	c #7E7E7E",
"g.	c #AAAAA9",
"h.	c #A1A1A1",
"i.	c #A8A8A8",
"j.	c #272728",
"k.	c #474747",
"l.	c #666360",
"m.	c #1E1F1F",
"n.	c #B0B0B0",
"o.	c #ACABAC",
"p.	c #AEAEAE",
"q.	c #292A29",
"r.	c #565554",
"s.	c #4B4847",
"t.	c #2F302F",
"u.	c #868686",
"v.	c #B4B4B3",
"w.	c #B2B1B2",
"x.	c #B4B5B5",
"y.	c #2B2B2D",
"z.	c #494846",
"A.	c #424244",
"B.	c #565657",
"C.	c #929292",
"D.	c #A7A7A7",
"E.	c #B8B8B8",
"F.	c #B9B9B8",
"G.	c #BFBFBF",
"H.	c #2B2C2C",
"I.	c #65615E",
"J.	c #898A8A",
"K.	c #929393",
"L.	c #AFB0B1",
"M.	c #BBBBBB",
"N.	c #D7D7D8",
"O.	c #323232",
"P.	c #616261",
"Q.	c #747475",
"R.	c #616262",
"S.	c #64605D",
"T.	c #909090",
"U.	c #C1C1C1",
"V.	c #D6D6D7",
"W.	c #D4D4D3",
"X.	c #656565",
"Y.	c #7B7B7B",
"Z.	c #797979",
"`.	c #6F6F6E",
" +	c #B6B6B6",
".+	c #CAC9C9",
"++	c #D2D2D2",
"@+	c #D7D6D6",
"#+	c #343435",
"$+	c #6B6B6C",
"%+	c #827F7D",
"&+	c #ABABAB",
"*+	c #BDBDBE",
"=+	c #C7C7C7",
"-+	c #D1D1D1",
";+	c #D9DAD9",
">+	c #DEDEDE",
",+	c #373737",
"'+	c #6D6F6F",
")+	c #848485",
"!+	c #B4B4B4",
"~+	c #C7C8C7",
"{+	c #D8D8D9",
"]+	c #DFE0DF",
"^+	c #EBEAEB",
"/+	c #39393A",
"(+	c #737374",
"_+	c #8B8A8A",
":+	c #BEBEBE",
"<+	c #D1D1D0",
"[+	c #E1E1E0",
"}+	c #EBEBEB",
"|+	c #EFEEEF",
"1+	c #37393A",
"2+	c #7D7B79",
"3+	c #C8C8C8",
"4+	c #D6D7D7",
"5+	c #E0E0DF",
"6+	c #EAEBEA",
"7+	c #F0EFEF",
"8+	c #E9E9E9",
"9+	c #3C3A38",
"0+	c #808080",
"a+	c #CECECF",
"b+	c #DEDFDE",
"c+	c #EFEFEF",
"d+	c #E8E8E7",
"e+	c #DFDFDF",
"f+	c #404140",
"g+	c #D1D1D2",
"h+	c #D5D5D5",
"i+	c #E6E6E6",
"j+	c #E9E8E9",
"k+	c #DFDFDE",
"l+	c #D8D7D8",
"m+	c #474748",
"n+	c #8A8A89",
"o+	c #A2A2A2",
"p+	c #838282",
"q+	c #D8D7D7",
"r+	c #D0D0CE",
"s+	c #484848",
"t+	c #8E8F8E",
"u+	c #AAA9A9",
"v+	c #C0BFC1",
"w+	c #B9B9B9",
"x+	c #D9D9D9",
"y+	c #D0D0CF",
"z+	c #C7C6C6",
"A+	c #4B4B4A",
"B+	c #959595",
"C+	c #DDDDDD",
"D+	c #D8D9D9",
"E+	c #E0E0E0",
"F+	c #C6C6C6",
"G+	c #BBBBBC",
"H+	c #444443",
"I+	c #707070",
"J+	c #898889",
"K+	c #8B8C8C",
"L+	c #858686",
"M+	c #7D7D7C",
"N+	c #757678",
"O+	c #767471",
"                                                  . + @ # $ % & * = ",
"                                                  - ; > , ' ) ! ~ { ",
"                                                  ] ^ / ( _ : < [ } ",
"                                                  | 1 ! 2 3 4 5 6 ; ",
"                                                  7 8 9 0 a b c d e ",
"                                                  f g h i j k ; l m ",
"                                                  n o ] b o p q r s ",
"                                                  t u v o d w x y z ",
"                                                  A B C a e x D E F ",
"                                                  G H f I J K L M N ",
"                                                  O P k Q R S T U 3 ",
"                                                  v ] < V W X Y N Z ",
"                                                  `  .^ ..+.@.#.$.%.",
"                                                  &.*.=.-.;.>.,.'.).",
"                                                  !.~.{.].^./.(._.:.",
"                                                  <.[.}.|.1.2.3.4.5.",
"                                                  o {.}.6.f 7.8.9.0.",
"                                                  a.b.c.d.e.f.g.h.i.",
"                                                  j.k.T l.m.f.n.o.p.",
"                                                  q.k.r.s.t.u.v.w.x.",
"                                                  y.z.A.B.C.D.E.F.G.",
"                                                  H.%.I.J.K.L.M.G.N.",
"                                                  O.P.Q.R.S.T.U.V.W.",
"                                                  O.X.Y.Z.`. +.+++@+",
"                                                  #+$+%+&+*+=+-+;+>+",
"                                                  ,+'+)+!+~+-+{+]+^+",
"                                                  /+(+_+:+<+{+[+}+|+",
"                                                  1+2+C.3+4+5+6+7+8+",
"                                                  9+0+5.a+b+}+c+d+e+",
"                                                  f+u.9.g+h+i+j+k+l+",
"                                                  m+n+o+p.p+M.5+q+r+",
"                                                  s+t+u+v+Y.w+x+y+z+",
"                                                  A+B+p.C+D+E+y+F+G+",
"                                                  H+X.I+J+K+L+M+N+O+"};
