/* XPM */
static char *saw21726419178[] = {
/* columns rows colors chars-per-pixel */
"100 74 256 2 ",
"   c None",
".  c #0B0B0D",
"X  c #070406",
"o  c #18090B",
"O  c #0B0E13",
"+  c #060F1B",
"@  c #0D1216",
"#  c #0E151B",
"$  c #0C171E",
"%  c #131314",
"&  c #12151A",
"*  c #13191D",
"=  c #1B1B1B",
"-  c #191715",
";  c #12110F",
":  c #271718",
">  c #361819",
",  c #310C0F",
"<  c #1C251B",
"1  c #26221E",
"2  c #0D1921",
"3  c #131C23",
"4  c #191E24",
"5  c #2E1B25",
"6  c #1B2225",
"7  c #19242A",
"8  c #1C2B35",
"9  c #232423",
"0  c #2B2B2C",
"q  c #272728",
"w  c #36312D",
"e  c #262C32",
"r  c #2C3234",
"t  c #29343B",
"y  c #333434",
"u  c #35393B",
"i  c #3B3C3B",
"p  c #353738",
"a  c #352B29",
"s  c #4A1607",
"d  c #4D1211",
"f  c #6D1013",
"g  c #5B270C",
"h  c #522A17",
"j  c #692908",
"k  c #7A3706",
"l  c #6F2D13",
"z  c #4C1029",
"x  c #6D0B35",
"c  c #482624",
"v  c #542A29",
"b  c #443836",
"n  c #52362C",
"m  c #6C3633",
"M  c #27501A",
"N  c #3A671D",
"B  c #384A33",
"V  c #396C25",
"C  c #45423C",
"Z  c #5B493A",
"A  c #704C2E",
"S  c #457A27",
"D  c #4F7439",
"F  c #756A30",
"G  c #6C5719",
"H  c #383D42",
"J  c #273B44",
"K  c #791044",
"L  c #74314E",
"P  c #7D3F64",
"I  c #3A4347",
"U  c #364B53",
"Y  c #325663",
"T  c #444544",
"R  c #4C4D4B",
"E  c #464848",
"W  c #474D53",
"Q  c #4C5455",
"!  c #565857",
"~  c #53504B",
"^  c #6F4F51",
"/  c #5B6557",
"(  c #6E6857",
")  c #555C61",
"_  c #4A5D62",
"`  c #5B6363",
"'  c #586569",
"]  c #516974",
"[  c #666967",
"{  c #78756B",
"}  c #6B7575",
"|  c #777977",
" . c #6C6E6D",
".. c #785668",
"X. c #87150C",
"o. c #951410",
"O. c #AA1C12",
"+. c #863C07",
"@. c #922F12",
"#. c #A62713",
"$. c #A93415",
"%. c #B63716",
"&. c #B42D0D",
"*. c #A01B2F",
"=. c #D0340D",
"-. c #D21931",
";. c #CE2531",
":. c #E52535",
">. c #984A0A",
",. c #8B4D14",
"<. c #AF4F11",
"1. c #B16F17",
"2. c #8D542B",
"3. c #AF5032",
"4. c #927031",
"5. c #B0792D",
"6. c #8E6C15",
"7. c #CF4F11",
"8. c #CF711A",
"9. c #E67414",
"0. c #D06B28",
"q. c #E97A28",
"w. c #D6591E",
"e. c #8B0F4F",
"r. c #B73755",
"t. c #991A66",
"y. c #AF196E",
"u. c #93296B",
"i. c #B62C70",
"p. c #892557",
"a. c #D43151",
"s. c #E9344D",
"d. c #C81B72",
"f. c #C9257C",
"g. c #D82978",
"h. c #8E514B",
"j. c #B05655",
"k. c #8E6A52",
"l. c #AD6858",
"z. c #857778",
"x. c #87756A",
"c. c #B1756B",
"v. c #9D5274",
"b. c #D3504F",
"n. c #ED4D52",
"m. c #D17556",
"M. c #CF4F73",
"N. c #CE716A",
"B. c #ED606B",
"V. c #548A2C",
"C. c #578F2E",
"Z. c #669B33",
"A. c #66A72E",
"S. c #6AA833",
"D. c #76B538",
"F. c #70AC32",
"G. c #698B53",
"H. c #7C8576",
"J. c #72A545",
"K. c #AD8D33",
"L. c #9E962C",
"P. c #EC8A18",
"I. c #F29517",
"U. c #EC9215",
"Y. c #D38D2D",
"T. c #F39828",
"R. c #EE912E",
"E. c #F4A629",
"W. c #FAB535",
"Q. c #D8AB21",
"!. c #88C73A",
"~. c #98D13B",
"^. c #A9DC3D",
"/. c #939052",
"(. c #AF9650",
"). c #8BB057",
"_. c #B9AC51",
"`. c #84837D",
"'. c #979470",
"]. c #B18D73",
"[. c #94B675",
"{. c #B2B16E",
"}. c #EC924E",
"|. c #CBB157",
" X c #EFA94D",
".X c #CB8972",
"XX c #D7A468",
"oX c #AFD24E",
"OX c #A8D959",
"+X c #D1CE6E",
"@X c #E0DA5F",
"#X c #E5C72F",
"$X c #747D83",
"%X c #677B85",
"&X c #D83085",
"*X c #E43C92",
"=X c #B0778E",
"-X c #937082",
";X c #D86095",
":X c #7A8787",
">X c #678590",
",X c #6B96A3",
"<X c #858A87",
"1X c #88928D",
"2X c #95948B",
"3X c #8B9593",
"4X c #8B9895",
"5X c #949C9B",
"6X c #989A96",
"7X c #948A88",
"8X c #B2948E",
"9X c #98A39D",
"0X c #94A594",
"qX c #A4A49E",
"wX c #ABB28F",
"eX c #9CA7A4",
"rX c #94A9B0",
"tX c #A7AAA6",
"yX c #B2AEA8",
"uX c #ABB4AC",
"iX c #A8B4A9",
"pX c #B3B7AD",
"aX c #ADB7B3",
"sX c #B4BBB3",
"dX c #B9BAB6",
"fX c #A4AAB0",
"gX c #A894A2",
"hX c #CC8E89",
"jX c #E8918A",
"kX c #E8A58A",
"lX c #F8BA9A",
"zX c #EEB092",
"xX c #C8B6AE",
"cX c #EEB3A3",
"vX c #D697A8",
"bX c #BBC3B5",
"nX c #BBC3BA",
"mX c #AEC0A9",
"MX c #B1C992",
"NX c #C3CABC",
"BX c #C3C5BC",
"VX c #D5CBB7",
"CX c #FBC5A4",
"ZX c #F0CEB4",
"AX c #DCDB9C",
"SX c #B6BCC3",
"DX c #E5A3C7",
"FX c #BBC5C2",
"GX c #C8CBC4",
"HX c #CCD1C8",
"JX c #D2D5CB",
"KX c #D8D4D1",
"LX c #EBD6C8",
"PX c #DFE0DA",
"IX c #E8EBD5",
"UX c #EEF1F0",
/* pixels */
"                                                                                                                                                                                                        ",
"                                                                                                                                                                                                        ",
"                                                                                                                                                                                                        ",
"    1X) p                                                                                                                                                                                               ",
"  ~ i 6 w C C                                                                                                                                                                                           ",
"  E 9 = 9 6 =                                                                                                                                                                                           ",
"  - y Q 6 ; - [ ~                                                                                                                                                                                       ",
"  = tXiX3Xw - r 0 C                                                                                       <X3X3X[ E ~                                                                                   ",
"  1 iXiXiX0XI # - 9                                                                                 6X6X| ) t * 2 2 4                                                                                   ",
"  0 iXiXiXiXeXQ % w T { b                                                                     tX<X .E * * 3 3 3 3 3 2                                                                                   ",
"  q tX4XiXiXaXiXE < < E y                                                               1X2X| r @ # 3 3 2 # # O $ 3 3 H                                                                                 ",
"  e 9X} eXiXiXmXiXE 1 - 1                                                       `.qX9X[ 9 @ # * $ 2 $ @ @       T 2 7 J                                                                                 ",
"  e ` 3XeXiXiXiXsXaXQ w w [   C                                           7XyX2X! 9 # * 2 2 $ * O O             ` 2 3 e                                                                                 ",
"    r 4X0XeXeXmXpXmXiX! 0 0 [ ! ~                                     6XGXQ * $ * 3 * 3 # @ @                   { 2 3 7                                                                                 ",
"    %  .5X9X4XiXpXmXbXmX! 9 1 w r                                   <XdX6 & * * * & @ @                         | & 3 8                                                                                 ",
"      < 4X0X! 4XaXbXbXNXnX! - 1 9                                   3X<X@ $ # @ .                               7X& 3 e                                                                                 ",
"      - / 5X:X:XiXsXbXNXHXNXE q a H.  W                             tX! # *                                     yX@ *                                                                                   ",
"      p 9 ` eXrXiXmXmXFXHXHXNX/ = a R H [                           tXi * %                                   qX( # 3                                                                                   ",
"        1 6 1XeXiXiXmXbXNXHXHXNX! = 9 9 9                           tXy # @                               dX} I 7 3 $                                                                                   ",
"        < @ B 4XrXiXmXbXNXNXHXJXHX~ % 0 R                           uX0 * *                         tX2X .r 6 7 7 3 3                                                                                   ",
"          0 % ! 0XiXiXbXNXNXNXHXJXNXE 1 0 !   b                     tXq $ *                     yX`.T * 6 6 6 7 4 e W fXFXSXfXeX4X                                                                      ",
"            R 0 } eXiXbXNXNXNXJXJXJXdXT = w ~ T                     tX9 * &               6XtX[ e 6 7 6 6 6 p  .tXBXqX:X} [ ' } >X,XrX:X                                                                ",
"            | 9 1 1XiXbXbXNXNXNXVXJXJXuXp q 1 i                     7X4 $ @         <XtX1Xu 7 3 6 7 6 r | yXtX<X[ ! Q Q U U U J J J J >X,X                                                              ",
"              u 9 y 6XmXmXbXbXNXNXGXHXHXqXy q q !                   z.3 $ @     dX6X[ 7 3 3 7 4 7 ! 4XtX3X} [ ` ) Q H J t 8 7 7 8 8 8 U Y ,X                                                            ",
"                  = R uXsXbXbXbXNXNXNXHXGX4Xe = C [ x.!              .: $ $ Q | u * 3 6 3 3 e ` tXuX| } } ' Q I t e 6 3 @ + O @ $ $ 3 7 8 Y ,X                                                          ",
"                  9 q / aXbXbXbXbXNXNXNXnXFX:Xu 9 p ! T             / q $ $ $ $ 2 6 3 2 2 } aX3X| z.} ' U I t 7 3 @ @ . . X . X X X O $ 3 8 Y ,X                                                        ",
"                  q q a | sXsXbXbXmXbXbXbXbXaX[ u 9 - =             E r $ 3 3 3 6 $ @ | bX3X<X1X| ' W J t 2 @ @ O .               % X O # 3 8 %X                                                        ",
"                      = 9 1XiXaXpXpXpXuXaXaXaXaX .4 q 0 tX  ~         w # $ 3 # . E FX1XH.:X[ _ U t 7 2 O . .                         O . # 3 J >X                                                      ",
"                        - C 1XiXuXuXiXiXiXiXiXiXeX) 9 q i E b         0 @ @ . 6 0XtX<X1X} ! I t 6 * * & y !                             O O 2 8 %X                                                      ",
"                        - @ u 0XeXtXeXiXqX9XqXeXeX5XW 9 T i C -         * % u dX1X4X1X' U e 3 & % % E `.:X}  .                          T . & 3 Y                                                       ",
"                          p = R 9XeXeXeX9X9X9X9XeXeX3Xt q = = %           | dX4XeXH.U t 6 # % . = R ! w 9 & * Q                         ~ : 2 + U %X                                                    ",
"                            C % [ 9X9X0X9X0X9X5X5X5X5X5Xr I T i   i     | uXqX6X[ I q * % O = C y 9 . . 4 y T ! :X:X`                     y 2 2 J >X                                                    ",
"                            i w 6 H.4X0X4X5X4X4X4X4X4X5X:X6 < y y 1 R 7XdXuX6X` u 6 # ; ; - : 6 3 q y i E I y r q b l.].2X                ~ * 2 t %X                                                    ",
"                                6 r } 1X4X4X4X4X4X4X4X4X4X:XI . w ; [ SXaXtX} B 7 % @ q Z C q y B E T y q 4 > l 3.}.}.}. XXX              | 3 3 8 ]                                                     ",
"                                ` 4 q } 1X1X4X4X3X1X4X4X4X1X' r 0 R dXdXeX} t 3 % - ( 2X`.( ! ~ i 0 : > f @.3.0.].c.c.]..XY.XXx.          `.3 3 7 ]                                                     ",
"                                  - @ 7 H.:X:X1X4X:X:X1X1X:XH.`.(.GXnXeX} t * & ; b { B z.( C a > g X.#.%.%.3.8XjXB.n.s.b.l.R. X2X        7X3 3 7 ]                                                     ",
"                                  r Q 0 B } 1X1X:X4X:X:X:XH.'.Y.2XdXeX:XH 4 & - h Z { I y c l h.$.#.O.#.%.3.h.B.s.s.-.-.*.p.0.R. X8X      `.4 3 7 _                                                     ",
"                                      i 9 y } :X1X:X4X:XH.{ Y.l.HXtX$XQ 6 & * ,.I.3.a h 2.0.q.0.$.X.o.%.=.w.m ;.-.*.*.X.X.f A R.T.}.XX    z.3 2 8 _                                                     ",
"                                        R 0 H H.<X:X:X:X| l.<.6XtX3X' q % - l I.I.l k.}.q.q.w.7.X.X.$.7.0.q.v f o.x f d d d z P.T.T. XlX  ( & 3 7 _                                                     ",
"                                        e 0 e I :X,X:X:X` 0.h.JX3X| u * % s 7.9.,.v }.zXq.w.%.#.@.%.$.w.q.R.7.v z d z , d > v 9.q.T.T.R.+X( & 3 8 _                                                     ",
"                                            p 6 Q :X:X:X( %.yXtX$XW 4 % , O.=.&.> m n.0.XX3.<.$.$.%.=.w.q.I.P.1.g c c c d > l w.U.T.E.E.E.zXE 3 t `                                                     ",
"                                              : 0 E $X%X2.2.PXH.] t @ % d =.=.f : j.:.O.@.Y.7.7.7.w.w.9.9.P.P.P.9.<.X.s s l <.P.U.U.T.Y.K.4./.< 8 !                                                     ",
"                                              < O i W %X*.7XpX} U 3 @ : f O.&., , b.=.o.o.&.5.8.8.P.T.q.P.P.P.U.P.P.9.7.7.9.P.U.E.Y.4.2.,.>.K.k.J `                                                     ",
"                                                  q H W m bX`._ e & O d f o.O., : b.-.o.X.O.#.8.R.E.T.T.P.I.U.U.U.I.U.U.U.I.I.K.2.2.G <.1.<.>.2.J                                                       ",
"                                                  r . : v JX` U 4 @ ; f f f f o c b.O.o.X.o.O.&. X@XW.E.E.I.8.U.U.U.I.I.U.K.6.A ,.1.1.>.+.+.>.A r                                                       ",
"                                                    y w { 9X! J @ # X , f s , c k.b.O.o.X.o.X.%.7. X@XW.W.W.R.Y.U.U.Y.2.G ,.,.,.F k +.+.+.+.,.A e                                                       ",
"                                                      a yX} W 8 + @ > c c ~ a Z n c g l f c 0 f =.9.}.@X XW.E.Y.1.6.k G 1.1.,.~ p C Z g k +.,.G w                                                       ",
"                                                        GXQ H 3 O % q R ` 6 o n q w ! b b T H H =.7.9.R.@XW.Y.<.k 6.1.1.,.,.j I ! [ ~ 1 j k k A                                                         ",
"                                                      ! aXE t O @ 3 B B < ! y b = = 5 q gX .R u f l m 9.U.|.5.,.1.,.+.k k k 1 Q I = o : j k k A ! -Xz.-X7X=X8X=X=Xv.h.{ /.|.+X/.                        ",
"                                        | `.          z.3XI 8 + & <XUXHX/ H. .T & & - E <X .H 3 5 v > 7.9.5.A ,.k k ,.k k k % 6 o o w ~ n h G C [ | z.=X=X;Xv.M.n.g.a.g.x.F K.#X@X'.                    ",
"                                        BXZX8X        eX} H 4 O 3 KXUXIXR i 0 q O - & i u y 3 O o &.$.7.7.k j j g j k j h n : : > : xXMXAXIXIXIXIXIXAXJX..i.M.p.a.a.s.s.j.k.6.1.Q.Q.(.                  ",
"                                        xXVXkX(       pX! J 4 . e UXUXPX[ = % % O @ % % U H . X , =.=.7.7.l g k j > Z qXIXLXcXJXLXpXBX^.@X@XOX@X^.OX^.OXMX| ~ | v.&XM.M.M.j.k.5.G Y.Q./.                ",
"                                        qXLXzXc.      tXW t 3 + t HXPXGX3X! C q O O @ , v 4 O o f &.<.7.7.g j +.,.g BXZXZXCXCXCXCXyXwX^.^.^.^.OX^.^.!.!.!.MXNXPXUXLXDXDXDX;X;Xm.K.G 6.L.                ",
"                                        yXLXzXc.Z     qXI e # @ E :XaXFXyX7X .! 0 o . , o.f c f O.&.&.7.<.s j +.+.A ZXlXCXlXlXCXCXyX[.~.~.~.~.~.~.!.!.D.D.!.!.OXAXIX;X&X&X&X*X;Xm.+XG 6.A               ",
"                                      | PXZXkXN.Z     6XI e + @  .H ' FXGXSX6X| ` p . , o.o.X.o.O.&.c $.<.s j +.>.Z CXlXlXlXlXlXlXpXG.!.!.!.!.~.!.!.!.!.D.D.D.D.OXOXPX*X&X&X&Xg.a.c.+XG h               ",
"                                      yXZXzXjXl.v     1XH 8 O O R [ i 6XqXaXaX5X| ) B 9 d o.o.O.&.&.@.@.$.s j @.>.'.CXlXzXkXzXzXzXtXrXFXnXmXmXwX[.!.D.D.D.A.A.D.D.!.[.DX&X&Xg.g.g.r.XX_.>               ",
"                                      +X/.2Xz.A n   6X| J 7 O & | p [ 7Xy 5XaXGX6X .Q e = d o.o.O.&.&.7.$.s j j k dXCXlXkXN.N..X.X`.^ { 6XfXSXFXFXiXS.D.S.A.A.F.D.D.D.MXgXf.g.&Xd.d.d.|.(.a             ",
"                                    MXoX).8X6Xz.q   7X) e 4 O & 7Xi ` 3X! p FX5XFX .[ I w 4 , o.O.#.@.$.+.s k s A IXcXlXkXh.j.k.h.^ L e.e.K P P ..<X'.Z.A.A.A.S.S.S.D.D.pX;X&X&X&Xd.d.a.|.L.            ",
"                                    MX~.wXvXz...y   -XW e 4 O 7 [ ! ~ tXe } :X] 5XGX9X:XE W J d O.&.l d +.g @.A aXIXCXlX.Xh.h Z ^ n x e.e.K e.K u.z.6XG.Z.A.F.S.S.D.S.D.).aX&Xf.&Xd.y.y.j.XXk.          ",
"                                  wXoX{.gXvXv.K 5   $XT e & O y ! T  .! [ ! %XH Q dXGX} `  .' H , #.%.%.l j A KXVXVXCXzXl.h.L o X X 5 z x z K e.t.yXtX1XC.A.S.Z.S.S.S.D.D.[.vXi.d.d.d.&Xg.(.oX          ",
"                                H.+XOXbXKXVXgXu.z   z.I 7 & O y <Xp ( 2X5 [ | r ' aXfXrXeX| [ ! B c #.=.j h JXLXxXcXlXc.h.L n X X X X X X o x e.e.xXHX2XG.S.S.S.S.S.S.S.S.J.mX=Xf.y.d.d.f.r.(./.        ",
"                                /.oXOXBXDXVXxX8X..: [ I e & O H [ R !  .W [ z.! H 5XE 5X$X| | <X .E > @.f x.VXCXhXzXm.h.A v o X X X X X X X , x p.8XBXBX6XG.Z.S.A.D.A.A.S.S.J.aXu.y.y.&Xf.y.j.L.(       ",
"                              ( G.~.oXhXcXcXvX8Xc.n ~ i 7 & O p E b (  .i | ! E $X6XI | ) ! `.pX5X} W : s k.N.c..Xl.h.L c g 3.3.c o , o o X o x e.v.pXGXdX2XG.Z.A.S.A.A.A.Z.S.[.gXy.y.y.y.i.i.j.k.~     ",
"                            /.|.F ~.oX.XjX;XjXhXz.^ w p 9 & O e C q ! ! y `.[ T | | q <X! T [ 6XdXtX} u s g ^ h.2.Z c g 2.m.m.m.m.^ o o , o X z x p.tXdXnXqX<XC.C.Z.C.A.C.Z.C.C.2X-Xt.y.y.f.*Xd.k.L.F   ",
"                            AXK.G !.oXN.B.B.B..XhXk.q y 4 @ O 4 E 0 ! T p z.[ y <XQ ! !  .T z.7X<X .p 6 j >.>.+.s , > 1.m.m..Xm..Xl.m o > : o o K e.-XuXpXdX2X`.D C.C.C.C.A.V.V.C.'.t.t.y.&Xy.&Xj./.K.  ",
"                          wX#XK./.oX+Xn.n.n.B.;XhXc.b q 4 & O % b q R R q `.b Q <X| # -X} H 2X2X`.~ 0 : +.>.<.j o X 2.c N.}.l.hX.Xl.h.: : > , . , e.P 9XyXyXtX2XH.D C.C.V.V.S S V.G.-Xt.y.y.t.t.i.h.L.L.",
"                          +X#XK.oX@XVXb.s.n.n.N.hX8X..* & & O & O w I W 0 { W i H.R I u [ E 7X2X<X~ 0 : >.<.>.s , - jXj.m m.l.jXzXl.h.c , 5 > : o x K z.9XqXpXbX0X{ S V.V.S V.V S V. .L t.t.K t.u.u.A 2.",
"                          |.Q.4.+XoXcXs.s.s.n.B.hX8X8XR O O O & . % E I p | B 0 6X[ y Q ) W <X7X2XE r : +.>.>.g , = cXN.n v h.c.N.h.L c o > , : o , x L 7X9XyXdXdX6X`.D V.N N N V V.G.P t.t.t.t.u.-XfXtX",
"                          _.Q.4.+X+XkXs.-.-.a.b.N.8XyX/ % O O @ X 4 T H t <Xq E | [ e ! ) )  .| 2XB w , +.<.>.s , o .XN.h.- m v m A c > m ^ v - o X z x P 5XgXfXdXpXqX1X/ N V N V V.V.G.P t.P z.5XFXFXaX",
"                          4.L.4.+X+XN.:.:.-.;.a.b.xXwXC.N % X X X X p E e } H p | q W p ` ) | ! <XB 0 , +.>.+.g , X 0 n : 1 cX.X.Xl.c.kXlXlXlX.Xh.. X d x ..4X5X6XqXpXtX:X} M V V V V V V ! 6XtXGXfXPXKX",
"                            (.).@XAX.X:.-.-.-.a.N.xX/.Z.V.V < @ % . + 5 H } E 4 <XH 9 ) ) ` 7X| z.u 0 g >.<.k j s X + + + O LXCXCXCXCXCXCXlXCXlX.Xh.X X z x  .<X$X3XtXfXtX| H.Q M V V V D qXGXdXGXPXxXKX",
"                            {.{.oXAXb.:.:.-.-.-.=XwXJ.Z.C.S M M < q 5 - J ' q ) [ I e ) ) ~ y 7X`.r 9 j >.<.j j s X 2 2 + X 8XCXCXCXlXlXkX8X8XhX.Xj.> X X z x } :X1X3XgX9X5X:X[ t M V V <XyXSXJXKXHXPXHX",
"                            '.{.F.).3.-.-.-.-.-.hX/.S.C.C.V.S M B W a : 4 U H e } 9 E ) W { i [ | a 9 l >.<.j j g . 2 2 + o C zXzXkXkXXXc.cXlXzXc.h.m o X X , z %X$X$X$X$X$X$X[ W M V } 9XHXHXJXHXPXGXPX",
"                                                                                                                                                                                                        "
};
